<?xml version="1.0" encoding="UTF-8"?>
<svg xmlns="http://www.w3.org/2000/svg" viewBox="20 20 445 342" role="img" aria-label="IE">
  <g transform="translate(-9.5,392) scale(0.1,-0.1)" fill="#000000">
    <path d="M630 2779 c0 -912 3 -1139 13 -1132 217 169 380 271 630 394 l107 54
0 912 0 913 -375 0 -375 0 0 -1141z M2020 3114 l0 -806 15 6 c81 31 475 115
645 138 l90 12 0 368 0 368 975 0 975 0 0 360 0 360 -1350 0 -1350 0 0 -806z
M3935 2419 c-861 -30 -1520 -120 -2055 -280 -623 -186 -1046 -423 -1468 -821
-84 -79 -76 -74 79 51 246 197 553 375 854 494 461 181 864 273 1490 337 216
22 571 40 1015 50 801 18 758 16 839 39 71 21 181 78 231 120 l25 20 -395 -1
c-217 -1 -494 -5 -615 -9z M3150 2079 c-680 -29 -1134 -98 -1605 -244 -299
-93 -630 -247 -856 -397 -124 -83 -356 -266 -404 -319 -18 -20 -1 -9 45 28
142 114 381 263 565 353 283 139 566 235 903 309 481 105 1151 145 2037 120
653 -19 753 -18 845 5 83 21 202 72 240 104 l25 20 -25 6 c-102 22 -1355 33
-1770 15z M2640 1783 c-466 -20 -806 -65 -1146 -153 -515 -133 -1003 -389
-1334 -701 l-65 -61 60 47 c207 161 438 303 635 391 363 163 755 265 1225 317
l200 22 495 -1 c512 0 853 -14 1330 -54 285 -24 406 -25 508 -4 80 16 199 66
242 101 l24 21 -79 6 c-764 60 -1642 89 -2095 69z M2085 1491 l-60 -6 -3 -692
-2 -693 1350 0 1350 0 0 360 0 360 -975 0 -975 0 0 340 0 340 -312 -2 c-172
-1 -340 -4 -373 -7z M1237 1344 c-164 -44 -351 -112 -494 -179 l-113 -54 0
-505 0 -506 375 0 375 0 0 640 c0 352 -3 640 -7 639 -5 0 -66 -16 -136 -35z"/>
  </g>
</svg>
